<svg xmlns="http://www.w3.org/2000/svg" version="1.1" xmlns:xlink="http://www.w3.org/1999/xlink" xmlns:svgjs="http://svgjs.dev/svgjs" width="440" height="252.12"><g><svg viewBox="0 0 395.52 247.2" height="247.2" width="440" xmlns="http://www.w3.org/2000/svg" version="1.1" xmlns:xlink="http://www.w3.org/1999/xlink" xmlns:svgjs="http://svgjs.com/svgjs" x="0" y="2.460000000000008" viewbox="0 0 440 252.12"><g><svg></svg></g><g><svg viewBox="0 0 395.52 247.2" height="247.2" width="395.52"><g><g><path xmlns="http://www.w3.org/2000/svg" d="M202.983 17.408l-47.584 0.387-0.412 52.23-19.619 0-0.472-70.025h123.794l1.934 2.321-2.321 16.248zM155.013 247.2h-20.117l1.083-70.025 18.323 0z" fill="#ffa458" fill-rule="nonzero" stroke="none" stroke-width="1" stroke-linecap="butt" stroke-linejoin="miter" stroke-miterlimit="10" stroke-dasharray="" stroke-dashoffset="0" font-family="none" font-weight="none" font-size="none" text-anchor="none" style="mix-blend-mode: normal" data-fill-palette-color="tertiary"></path></g></g><g transform="matrix(1,0,0,1,0,83.66792074393982)"><svg viewBox="0 0 395.52 79.86415851212034" height="79.86415851212034" width="395.52"><g><svg viewBox="0 0 517.9774232889254 104.59099676184869" height="79.86415851212034" width="395.52"><g transform="matrix(1,0,0,1,0,14.455050927288788)"><svg viewBox="0 0 395.52 75.68089490727111" height="75.68089490727111" width="395.52"><g><svg viewBox="0 0 395.52 75.68089490727111" height="75.68089490727111" width="395.52"><g><svg viewBox="0 0 395.52 75.68089490727111" height="75.68089490727111" width="395.52"><g transform="matrix(1,0,0,1,0,0)"><svg width="395.52" viewBox="5.050000190734863 -32.20000076293945 169.8300018310547 32.5" height="75.68089490727111" data-palette-color="#ffa458"><path d="M13.85-29.7L7.7-29.65 7.6-17 13.45-16.95 18.55-17.05 18.8-16.75 18.5-14.75 7.6-14.8 7.55-9.85 7.65 0 5.05 0 5.2-9.7 5.05-31.95 21.05-31.95 21.3-31.65 21-29.55 13.85-29.7ZM40.2-2.15L40.45-1.9 40.15 0 26.05 0 26.15-7.5 26.05-24.75 40.15-24.75 40.35-24.45 40.1-22.55 33.95-22.7 28.55-22.7 28.5-13.8 33.6-13.75 38-13.85 38.15-13.55 37.95-11.6 33.4-11.7 28.45-11.65 28.45-7.7 28.5-2.05 33.6-2.05 40.2-2.15ZM56.55-24.75L65.65 0 63.1 0 62.55-2.25 60.7-7.2 48.9-7.2 46.95-2.35 46.3 0 43.8 0 53.75-24.75 56.55-24.75ZM54.75-9.2L59.95-9.25 55.2-22.1 54.95-22.1 49.75-9.25 54.75-9.2ZM84.34-24.75L84.49-24.45 84.29-22.45 79.84-22.65 76.74-22.65 76.64-7.7 76.74 0 74.29 0 74.34-7.5 74.29-22.65 71.24-22.65 66.69-22.45 66.49-22.7 66.69-24.75 84.34-24.75ZM87.84-3.25Q88.64-3.25 89.07-2.8 89.49-2.35 89.49-1.6L89.49-1.6Q89.49-0.8 89.04-0.33 88.59 0.15 87.79 0.15L87.79 0.15Q86.99 0.15 86.57-0.28 86.14-0.7 86.14-1.5L86.14-1.5Q86.14-2.3 86.59-2.78 87.04-3.25 87.84-3.25L87.84-3.25ZM108.59-32.2Q113.29-32.2 117.79-29.7L117.79-29.7 117.19-27.3 116.79-27.25Q112.29-29.95 108.29-29.95L108.29-29.95Q102.29-29.95 99.16-26.33 96.04-22.7 96.04-15.6L96.04-15.6Q96.04-8.8 98.84-5.4 101.64-2 107.14-2L107.14-2Q109.04-2 110.71-2.27 112.39-2.55 115.04-3.3L115.04-3.3 115.09-7.95 115.04-12.55 117.54-12.75 117.49-8.25 117.59-1.5Q114.24-0.55 111.91-0.15 109.59 0.25 107.09 0.3L107.09 0.3Q100.34 0.3 96.86-3.8 93.39-7.9 93.39-15.5L93.39-15.5Q93.39-23.55 97.34-27.88 101.29-32.2 108.59-32.2L108.59-32.2ZM133.69-9L133.64-7.3 133.69 0 131.24 0 131.34-7.3 131.29-9 122.94-24.75 125.69-24.75 126.19-23.5 132.44-11.85 132.69-11.85 139.49-23.4 140.04-24.75 142.74-24.75 133.69-9ZM172.23-24.75L174.88 0 172.63 0 171.93-7.55 170.38-20.65 170.13-20.65 162.28-2.95 160.18-2.95 152.63-20.65 152.33-20.65 150.83-7.75 150.08 0 147.88 0 150.68-24.75 153.58-24.75 154.98-20.95 161.23-6.25 161.43-6.25 168.03-21.25 169.43-24.75 172.23-24.75Z" opacity="1" transform="matrix(1,0,0,1,0,0)" fill="#ffa458" class="undefined-text-0" data-fill-palette-color="primary" id="text-0"></path></svg></g></svg></g></svg></g></svg></g><g transform="matrix(1,0,0,1,413.3864429461289,0)"><svg viewBox="0 0 104.5909803427964 104.59099676184869" height="104.59099676184869" width="104.5909803427964"><g><svg xmlns="http://www.w3.org/2000/svg" xmlns:xlink="http://www.w3.org/1999/xlink" version="1.1" x="0" y="0" viewBox="25.700000762939453 25.700000762939453 48.59999465942383 48.60000228881836" enable-background="new 0 0 100 100" xml:space="preserve" height="104.59099676184869" width="104.5909803427964" class="icon-icon-0" data-fill-palette-color="accent" id="icon-0"><g fill="#ff0000" data-fill-palette-color="accent"><g fill="#ff0000" data-fill-palette-color="accent"><path fill="#ff0000" d="M69.7 73.9c-0.3 0-0.5-0.1-0.7-0.3l-3.9-3.9c-0.4-0.4-0.4-1 0-1.4s1-0.4 1.4 0l3.2 3.2 1.8-1.8-3.2-3.2c-0.4-0.4-0.4-1 0-1.4s1-0.4 1.4 0l3.9 3.9c0.4 0.4 0.4 1 0 1.4l-3.2 3.2C70.2 73.8 69.9 73.9 69.7 73.9z" data-fill-palette-color="accent"></path></g><g fill="#ff0000" data-fill-palette-color="accent"><path fill="#ff0000" d="M57.7 61.9c-0.3 0-0.5-0.1-0.7-0.3L38.4 43c-0.4-0.4-0.4-1 0-1.4s1-0.4 1.4 0l18.6 18.6c0.4 0.4 0.4 1 0 1.4C58.2 61.8 58 61.9 57.7 61.9z" data-fill-palette-color="accent"></path></g><g fill="#ff0000" data-fill-palette-color="accent"><path fill="#ff0000" d="M60.9 58.7c-0.3 0-0.5-0.1-0.7-0.3L41.6 39.8c-0.4-0.4-0.4-1 0-1.4s1-0.4 1.4 0L61.6 57c0.4 0.4 0.4 1 0 1.4C61.4 58.6 61.2 58.7 60.9 58.7z" data-fill-palette-color="accent"></path></g><g fill="#ff0000" data-fill-palette-color="accent"><path fill="#ff0000" d="M31 35.2c-0.3 0-0.5-0.1-0.7-0.3l-3.5-3.5c-0.2-0.2-0.3-0.4-0.3-0.7s0.1-0.5 0.3-0.7l3.2-3.2c0.4-0.4 1-0.4 1.4 0l3.5 3.5c0.4 0.4 0.4 1 0 1.4s-1 0.4-1.4 0l-2.8-2.8-1.8 1.8 2.8 2.8c0.4 0.4 0.4 1 0 1.4C31.5 35.1 31.2 35.2 31 35.2z" data-fill-palette-color="accent"></path></g><g fill="#ff0000" data-fill-palette-color="accent"><g fill="#ff0000" data-fill-palette-color="accent"><path fill="#ff0000" d="M30.8 43.5L30.8 43.5c-0.3 0-0.5-0.1-0.7-0.3L26 39.1c-0.4-0.4-0.4-1 0-1.4L37.7 26c0.2-0.2 0.4-0.3 0.7-0.3l0 0c0.3 0 0.5 0.1 0.7 0.3l4.1 4.1c0.4 0.4 0.4 1 0 1.4L31.5 43.2C31.3 43.4 31 43.5 30.8 43.5zM28.1 38.4l2.6 2.6 10.3-10.3-2.6-2.6L28.1 38.4z" data-fill-palette-color="accent"></path></g><g fill="#ff0000" data-fill-palette-color="accent"><path fill="#ff0000" d="M32.3 50.1c-0.3 0-0.5-0.1-0.7-0.3l-4.1-4.1c-0.2-0.2-0.3-0.4-0.3-0.7s0.1-0.5 0.3-0.7l16.7-16.7c0.4-0.4 1-0.4 1.4 0l4.1 4.1c0.4 0.4 0.4 1 0 1.4L33 49.8C32.8 50 32.6 50.1 32.3 50.1zM29.7 45l2.6 2.6 15.3-15.3L45 29.7 29.7 45z" data-fill-palette-color="accent"></path></g></g><g fill="#ff0000" data-fill-palette-color="accent"><g fill="#ff0000" data-fill-palette-color="accent"><path fill="#ff0000" d="M61.6 74.3L61.6 74.3c-0.3 0-0.5-0.1-0.7-0.3l-4.1-4.1c-0.4-0.4-0.4-1 0-1.4l11.7-11.7c0.2-0.2 0.4-0.3 0.7-0.3l0 0c0.3 0 0.5 0.1 0.7 0.3l4.1 4.1c0.4 0.4 0.4 1 0 1.4L62.3 74C62.1 74.2 61.8 74.3 61.6 74.3zM58.9 69.2l2.6 2.6 10.3-10.3-2.6-2.6L58.9 69.2z" data-fill-palette-color="accent"></path></g><g fill="#ff0000" data-fill-palette-color="accent"><path fill="#ff0000" d="M55 72.7c-0.3 0-0.5-0.1-0.7-0.3l-4.1-4.1c-0.4-0.4-0.4-1 0-1.4L67 50.2c0.2-0.2 0.4-0.3 0.7-0.3l0 0c0.3 0 0.5 0.1 0.7 0.3l4.1 4.1c0.4 0.4 0.4 1 0 1.4L55.7 72.4C55.5 72.6 55.3 72.7 55 72.7zM52.4 67.7l2.6 2.6L70.3 55l-2.6-2.6L52.4 67.7z" data-fill-palette-color="accent"></path></g></g></g></svg></g></svg></g></svg></g></svg></g></svg></g><defs></defs></svg></g></svg>