<svg width="350" height="201" viewBox="0 0 350 201" fill="none" xmlns="http://www.w3.org/2000/svg">
<g clip-path="url(#clip0_2_60)">
<g clip-path="url(#clip1_2_60)">
<g clip-path="url(#clip2_2_60)">
<g clip-path="url(#clip3_2_60)">
<g clip-path="url(#clip4_2_60)">
<g clip-path="url(#clip5_2_60)">
<g clip-path="url(#clip6_2_60)">
<path d="M17.3318 51.4366H43.8198V54.5149H0.007164V51.4366H6.16384V4.47399H40.5267V14.2817H17.3318V25.0917H39.3813V34.8994H17.3318V51.4366ZM43.0323 51.4366H49.9765V4.47399H86.0575V14.4249H61.1444V24.7338H83.5519V34.2551H61.1444V44.6356H86.845V51.4366H93.7891V54.5149H43.0323V51.4366ZM142.957 51.4366H151.275V54.5149H132.447L127.794 43.7049H106.804L102.151 54.5149H83.3371V51.4366H91.5699L111.901 4.47399H122.711L142.957 51.4366ZM123.57 33.8972L117.342 19.3646L111.042 33.8972H123.57ZM167.655 51.4366H183.834V54.5149H140.308V51.4366H156.487V14.1385H142.312V4.47399H181.83V14.1385H167.655V51.4366ZM227.933 51.4366H237.526V54.5149H183.834V51.4366H199.369C195.551 49.1934 192.558 46.1485 190.392 42.3018C188.215 38.4646 187.127 34.112 187.127 29.2439C187.127 21.8941 189.671 15.7374 194.759 10.7739C199.837 5.81033 205.97 3.32857 213.157 3.32857C220.335 3.32857 226.573 5.69101 231.871 10.4159L226.072 18.7919C223.829 16.8351 221.767 15.4844 219.887 14.7399C217.997 14.0049 215.954 13.6374 213.758 13.6374C209.511 13.6374 205.931 15.0788 203.02 17.9614C200.109 20.8536 198.653 24.6622 198.653 29.3871C198.653 34.112 200.051 37.8919 202.848 40.7268C205.635 43.5713 208.962 44.9935 212.828 44.9935C216.694 44.9935 219.915 44.2538 222.492 42.7743V29.0291H233.732V46.7833C232.109 48.5969 230.176 50.148 227.933 51.4366ZM264.372 51.4366H280.909V54.5149H236.667V51.4366H253.204V34.7563L235.88 4.47399H247.978L258.788 23.0872L269.598 4.47399H281.697L264.372 34.7563V51.4366ZM331.881 54.5149V23.0156L318.35 50.3627H311.693L298.234 23.0156V54.5149H280.122V51.4366H287.066V4.47399H302.171L315.057 31.9643L328.015 4.47399H343.049V51.4366H349.993V54.5149H331.881Z" fill="#5D0000"/>
</g>
</g>
</g>
</g>
</g>
</g>
<g clip-path="url(#clip7_2_60)">
<g clip-path="url(#clip8_2_60)">
<g clip-path="url(#clip9_2_60)">
<g clip-path="url(#clip10_2_60)">
<g clip-path="url(#clip11_2_60)">
<path d="M26.1795 112.765C25.5773 112.765 25.2428 112.338 25.1759 111.483V110.689C25.2094 110.485 25.2261 110.241 25.2261 109.956L25.0254 109.712C25.293 108.857 25.4268 108.022 25.4268 107.208C25.4268 106.271 25.3766 104.928 25.2763 103.177L25.1759 99.1466C25.1759 97.1109 25.2261 94.0574 25.3265 89.986C25.4603 86.3625 25.5272 83.2886 25.5272 80.7644L25.4268 77.1001C25.3599 76.0008 25.3265 74.7794 25.3265 73.4359C25.3265 72.8252 25.4435 72.3855 25.6777 72.1168C25.9119 71.8562 26.2798 71.7259 26.7816 71.7259C27.1161 71.7259 27.3837 71.848 27.5844 72.0923C27.6513 72.133 28.1363 72.2145 29.0395 72.3366C29.8757 72.4588 30.5949 72.642 31.197 72.8862C31.8326 73.1305 32.1504 73.4359 32.1504 73.8023C32.1504 74.2094 31.8326 74.6166 31.197 75.0237C29.2903 74.2502 27.9356 73.8634 27.1328 73.8634L26.8819 74.2298C26.9154 74.5962 26.9321 75.4716 26.9321 76.8558C26.9321 78.6065 26.8986 80.174 26.8317 81.5583C26.7983 82.9833 26.7816 84.5711 26.7816 86.3218C26.7816 87.4618 27.0157 88.0318 27.484 88.0318L28.2868 87.9707C28.5544 87.93 28.8388 87.9096 29.1398 87.9096C30.4444 87.9096 31.0967 88.276 31.0967 89.0089C31.0967 89.4567 31.013 89.8313 30.8458 90.1326C30.6785 90.442 30.4277 90.5967 30.0932 90.5967C29.5914 90.5967 29.2067 90.4339 28.9391 90.1082L27.3335 89.8028H27.0826L26.8317 90.1082V90.2914C26.8986 90.9835 26.9321 92.5917 26.9321 95.1159C26.9321 96.7038 26.9154 98.1491 26.8819 99.4519L26.8317 103.788C26.8317 105.376 26.8819 107.004 26.9823 108.674C27.0157 109.61 27.183 110.229 27.484 110.53C27.7851 110.84 28.337 110.994 29.1398 110.994L30.043 110.933C30.344 110.893 30.6785 110.872 31.0465 110.872C32.0166 110.872 32.5016 111.137 32.5016 111.666C32.5016 112.399 31.7657 112.765 30.2939 112.765H26.1795ZM42.5367 112.704L41.9848 112.155C41.9848 109.02 41.5733 104.399 40.7505 98.2916C39.9343 92.1845 38.8572 85.5075 37.5191 78.2605L37.1177 76.3673L36.4655 73.558C36.2648 72.703 36.1644 72.1738 36.1644 71.9702C36.1644 71.848 36.238 71.6933 36.3852 71.5061C36.539 71.3269 36.6829 71.2373 36.8167 71.2373C37.285 71.2373 37.6529 71.8684 37.9206 73.1305C38.0544 73.6598 38.1781 74.2583 38.2919 74.926C38.4123 75.6019 38.5059 76.0823 38.5728 76.3673C38.6397 76.978 38.6899 77.3444 38.7234 77.4665C39.3589 80.6015 39.7436 82.5965 39.8774 83.4515L40.3792 86.5661L40.8307 89.4974L41.2823 92.612C41.3827 93.7113 41.5165 94.6681 41.6837 95.4824L42.4364 101.467C42.4364 101.63 42.5534 102.668 42.7876 104.582L43.1388 107.574C43.8078 104.928 44.3765 100.897 44.8448 95.4824C45.3131 90.4339 45.9821 85.365 46.8518 80.2758C47.5877 75.8787 48.1062 72.6827 48.4073 70.6877L49.0595 70.3824C49.1933 70.4231 49.3171 70.5045 49.4308 70.6266C49.5513 70.7488 49.6115 70.8709 49.6115 70.9931C49.6115 71.8888 49.4609 73.1102 49.1599 74.6573L48.8588 76.2451L48.0058 81.0697C47.5041 83.7161 47.1596 85.7518 46.9722 87.1768C46.7916 88.6017 46.5842 90.6578 46.3501 93.3449L46.2497 94.7495C46.0824 96.9481 45.9553 98.4341 45.8684 99.2077C45.7881 99.9812 45.5974 100.979 45.2964 102.2C45.0288 103.422 44.8113 104.5 44.6441 105.437L44.5437 106.841C44.4768 108.266 44.343 109.529 44.1423 110.628C43.8747 112.012 43.3395 112.704 42.5367 112.704ZM43.0886 108.002V107.758L43.0385 107.88L43.0886 108.002ZM61.1519 113.132C57.2382 113.132 55.2813 105.64 55.2813 90.6578V88.5203C55.2813 77.1612 56.4855 71.4816 58.894 71.4816C59.0612 71.4816 59.292 71.5427 59.5864 71.6648C60.6635 72.1127 61.7205 72.3977 62.7575 72.5198C63.393 72.6827 64.0286 73.4766 64.6642 74.9016C65.3666 76.3673 65.8918 78.3012 66.2397 80.7033C66.5942 83.1054 66.7715 85.5686 66.7715 88.0928L66.6712 88.3982C66.6712 89.7417 66.6879 90.9428 66.7214 92.0013L66.7715 95.6656C66.7715 97.742 66.7046 99.6148 66.5708 101.284C66.3701 103.808 66.0356 105.987 65.5673 107.819C65.2596 108.918 64.915 109.834 64.5337 110.567C64.1524 111.3 63.674 111.91 63.0987 112.399C62.5702 112.887 61.9212 113.132 61.1519 113.132ZM60.9512 111.361C62.2557 111.361 63.2224 110.241 63.8513 108.002C64.4936 105.722 64.8816 103.401 65.0154 101.04C65.1492 98.597 65.2161 96.6427 65.2161 95.177C65.2161 93.5485 65.1157 91.1464 64.915 87.9707C64.7478 84.4286 64.6642 82.0265 64.6642 80.7644L64.4634 80.2758L64.5638 79.9704C64.5638 78.179 64.1524 76.6319 63.3295 75.3291C62.5066 74.0262 61.5098 73.3748 60.339 73.3748C58.807 73.3748 57.8871 74.2705 57.5794 76.0619C57.5191 76.6726 57.4556 77.548 57.3887 78.688C57.3887 81.7008 57.285 83.7568 57.0776 84.8561C57.0776 85.4668 57.0308 86.4236 56.9371 87.7264L56.8267 90.5967C56.8267 91.4924 56.8468 92.2863 56.8869 92.9785L56.9371 95.4213C56.9371 97.3348 57.0676 99.5334 57.3285 102.017C57.5359 103.849 57.7734 105.396 58.041 106.658C58.3086 107.92 58.6933 108.999 59.195 109.895C59.6968 110.872 60.2821 111.361 60.9512 111.361ZM74.1875 112.765C73.7192 112.765 73.4348 112.297 73.3345 111.361C73.4014 111.116 73.4348 110.445 73.4348 109.345C73.4348 105.6 73.485 100.042 73.5854 92.6731C73.6857 85.3446 73.7359 80.0519 73.7359 76.7948L73.8363 74.5962L73.9868 72.7641C73.9868 72.4791 74.1039 72.3366 74.338 72.3366C74.5053 72.3366 74.7394 72.3977 75.0405 72.5198L75.191 72.5809C75.191 73.4766 75.1743 74.2909 75.1408 75.0237V77.4055V84.0622C75.1743 86.0164 75.191 88.2353 75.191 90.7189C75.1575 90.9224 75.1408 91.3703 75.1408 92.0624L75.0906 93.3449C75.0572 94.1592 75.0405 94.9938 75.0405 95.8488C75.0405 96.7852 75.0572 97.6402 75.0906 98.4137L75.1408 101.04L74.9903 101.528L75.0405 101.467C75.0405 101.589 75.0237 101.671 74.9903 101.712V101.956C74.9903 102.282 75.0405 102.567 75.1408 102.811L74.9903 108.674V109.04C74.9903 109.732 75.007 110.139 75.0405 110.261C75.0405 110.465 75.1241 110.567 75.2913 110.567L77.9005 110.689C78.6698 110.689 79.1984 110.697 79.486 110.713C79.767 110.738 79.941 110.75 80.0079 110.75H80.1584C80.3256 110.75 80.4929 110.86 80.6601 111.08C80.8274 111.308 80.911 111.544 80.911 111.788C80.911 112.277 80.6434 112.541 80.1082 112.582C79.5395 112.541 78.1514 112.521 75.9436 112.521L76.044 112.582C75.7095 112.582 75.3917 112.602 75.0906 112.643C74.823 112.725 74.522 112.765 74.1875 112.765ZM91.0465 112.887C90.5113 112.887 89.9359 112.676 89.3204 112.252C88.6983 111.821 88.1865 111.32 87.7851 110.75C87.3168 110.017 86.9488 107.961 86.6812 104.582C86.4136 101.203 86.2464 97.3348 86.1794 92.9785C86.1794 92.0013 86.1627 91.2685 86.1293 90.7799C86.0624 80.5608 85.9286 74.5148 85.7279 72.642L86.0289 71.787C86.7983 71.9091 87.183 73.0287 87.183 75.1459L87.3335 91.3296C87.3335 92.4695 87.4171 94.6274 87.5844 97.803C87.7851 100.653 87.8854 102.811 87.8854 104.277C87.8854 108.918 89.1398 111.239 91.6486 111.239C93.1873 111.239 94.1741 106.964 94.609 98.4137L94.6591 97.1923C94.8933 85.9961 95.0104 77.7108 95.0104 72.3366L94.9602 71.787C94.9267 71.6241 94.91 71.4409 94.91 71.2373C94.91 70.7895 95.1943 70.5656 95.763 70.5656C96.1644 70.5656 96.4153 70.6877 96.5156 70.932C96.5825 71.3391 96.616 72.0516 96.616 73.0695C96.616 76.1637 96.5156 78.2401 96.3149 79.2987L96.3651 79.6651C96.3651 80.1944 96.3149 81.0086 96.2146 82.1079L96.1142 84.5507V85.1614C96.1477 85.3243 96.1644 85.5279 96.1644 85.7721C96.0975 86.7493 96.0641 87.6857 96.0641 88.5814C96.0306 88.8664 96.0139 89.3142 96.0139 89.9249C95.947 93.7927 95.8801 97.1516 95.8132 100.002C95.7128 103.544 95.3114 106.536 94.609 108.979C93.873 111.585 92.6856 112.887 91.0465 112.887ZM108.006 111.605L107.454 111.116L107.404 108.857C107.37 108.205 107.354 107.473 107.354 106.658C107.354 106.251 107.37 105.905 107.404 105.62L107.454 104.521C107.454 104.114 107.387 103.625 107.253 103.055C107.253 100.327 107.086 95.2584 106.751 87.8485C106.417 80.6829 106.233 75.8176 106.2 73.2527C104.126 73.2527 102.737 73.1916 102.035 73.0695C101.366 72.8659 101.031 72.5402 101.031 72.0923C101.199 71.6445 101.516 71.4206 101.985 71.4206C102.988 71.4206 104.443 71.502 106.35 71.6648C108.089 71.8684 109.545 71.9702 110.715 71.9702H111.769L112.823 71.9091C113.425 71.9091 113.726 72.1738 113.726 72.703C113.726 72.9473 113.615 73.1387 113.395 73.2771C113.181 73.4237 112.923 73.497 112.622 73.497C111.953 73.497 111.251 73.4562 110.515 73.3748L108.357 73.2527C108.223 73.2527 108.156 73.3137 108.156 73.4359C108.123 73.558 108.106 73.9448 108.106 74.5962C108.106 78.5455 108.307 84.5304 108.708 92.551C109.076 100.857 109.26 106.821 109.26 110.445C109.26 110.73 109.116 110.994 108.829 111.239C108.548 111.483 108.273 111.605 108.006 111.605ZM121.754 111.971C120.985 111.971 120.533 111.768 120.399 111.361C120.232 111.361 120.098 111.381 119.998 111.422H119.596C118.861 111.422 118.392 111.218 118.191 110.811C118.191 110.526 118.325 110.282 118.593 110.078L118.844 109.773H120.299L120.5 109.529L120.6 108.979L120.65 108.246C120.65 105.763 120.6 103.544 120.5 101.589L120.399 99.3298L120.299 94.8717C120.299 93.2838 120.349 90.9021 120.449 87.7264L120.55 80.6422C120.55 77.548 120.466 75.1866 120.299 73.558C119.998 73.4359 119.496 73.3748 118.794 73.3748L118.242 73.4359C118.041 73.4766 117.824 73.497 117.589 73.497C116.954 73.497 116.636 73.1509 116.636 72.4588C116.636 72.2959 116.787 72.133 117.088 71.9702C117.389 71.8073 117.64 71.7259 117.84 71.7259C119.111 71.7259 120.382 71.8073 121.654 71.9702C122.423 72.0109 123.192 72.1941 123.962 72.5198C124.564 72.7641 124.865 73.1102 124.865 73.558C124.865 73.6395 124.815 73.8023 124.714 74.0466L123.56 74.1687C123.326 73.9244 122.841 73.8023 122.105 73.8023L121.854 73.9855C121.955 74.3519 122.005 75.4309 122.005 77.2223C122.005 79.9094 121.988 82.3318 121.955 84.4897L121.854 91.7571C121.854 93.5892 121.921 95.8081 122.055 98.4137C122.155 101.386 122.206 103.625 122.206 105.132V105.925C122.172 106.21 122.155 106.577 122.155 107.025C122.155 107.961 122.206 108.531 122.306 108.735L122.256 108.857C122.256 109.264 122.624 109.468 123.36 109.468C123.661 109.468 123.912 109.447 124.112 109.406H124.865C125.835 109.406 126.32 109.691 126.32 110.261C126.32 110.628 126.22 110.921 126.019 111.141C125.818 111.369 125.551 111.483 125.216 111.483C124.915 111.483 124.647 111.442 124.413 111.361C124.146 111.32 123.861 111.3 123.56 111.3C123.36 111.3 123.059 111.401 122.657 111.605C122.256 111.849 121.955 111.971 121.754 111.971ZM136.144 113.132C132.231 113.132 130.274 105.64 130.274 90.6578V88.5203C130.274 77.1612 131.478 71.4816 133.886 71.4816C134.054 71.4816 134.288 71.5427 134.589 71.6648C135.659 72.1127 136.713 72.3977 137.75 72.5198C138.386 72.6827 139.021 73.4766 139.657 74.9016C140.359 76.3673 140.888 78.3012 141.242 80.7033C141.59 83.1054 141.764 85.5686 141.764 88.0928L141.664 88.3982C141.664 89.7417 141.68 90.9428 141.714 92.0013L141.764 95.6656C141.764 97.742 141.697 99.6148 141.563 101.284C141.363 103.808 141.028 105.987 140.56 107.819C140.259 108.918 139.918 109.834 139.536 110.567C139.148 111.3 138.67 111.91 138.101 112.399C137.566 112.887 136.914 113.132 136.144 113.132ZM135.944 111.361C137.248 111.361 138.218 110.241 138.854 108.002C139.489 105.722 139.874 103.401 140.008 101.04C140.142 98.597 140.209 96.6427 140.209 95.177C140.209 93.5485 140.108 91.1464 139.907 87.9707C139.74 84.4286 139.657 82.0265 139.657 80.7644L139.456 80.2758L139.556 79.9704C139.556 78.179 139.148 76.6319 138.332 75.3291C137.509 74.0262 136.512 73.3748 135.342 73.3748C133.803 73.3748 132.883 74.2705 132.582 76.0619C132.515 76.6726 132.448 77.548 132.381 78.688C132.381 81.7008 132.281 83.7568 132.08 84.8561C132.08 85.4668 132.03 86.4236 131.93 87.7264L131.829 90.5967C131.829 91.4924 131.846 92.2863 131.879 92.9785L131.93 95.4213C131.93 97.3348 132.063 99.5334 132.331 102.017C132.532 103.849 132.766 105.396 133.033 106.658C133.301 107.92 133.686 108.999 134.187 109.895C134.689 110.872 135.275 111.361 135.944 111.361ZM161.082 112.216C160.814 112.216 160.623 112.094 160.51 111.849C160.389 111.605 160.279 111.239 160.178 110.75C160.145 110.424 160.078 110.139 159.978 109.895L160.028 109.712C159.76 107.798 159.192 105.457 158.322 102.689L157.419 99.513C157.352 99.4316 157.034 98.3934 156.465 96.3984L156.064 94.9327C153.054 83.6143 151.164 77.4869 150.394 76.5505C150.127 77.6498 149.993 79.0747 149.993 80.8254C149.993 81.7618 150.01 82.5761 150.043 83.2682L150.093 85.65L150.043 87.1157C150.01 87.5635 149.993 88.0521 149.993 88.5814C149.993 89.4771 150.026 90.2506 150.093 90.9021C150.16 92.2049 150.194 92.8563 150.194 92.8563H150.043C150.043 99.6555 150.16 103.401 150.394 104.093V109.59C150.528 109.915 150.595 110.343 150.595 110.872C150.595 111.198 150.501 111.483 150.314 111.727C150.133 111.971 149.909 112.094 149.642 112.094C148.939 112.094 148.588 110.994 148.588 108.796L148.688 106.841C148.755 106.231 148.789 105.559 148.789 104.826C148.789 102.872 148.738 99.9405 148.638 96.032C148.538 92.1235 148.488 89.1921 148.488 87.2378C148.488 86.0571 148.538 84.2454 148.638 81.8026C148.738 79.4004 148.789 77.609 148.789 76.4283V75.6344C148.789 73.6395 149.09 72.3366 149.692 71.7259L149.842 71.9091L150.344 71.787C150.478 71.8277 150.628 71.9498 150.796 72.1534C150.929 72.3163 150.996 72.4995 150.996 72.703L151.097 73.0695C151.097 73.1509 151.107 73.2201 151.127 73.2771C151.14 73.3422 151.147 73.3748 151.147 73.3748C151.682 76.2655 152.886 80.3165 154.759 85.5279C156.666 91.0242 157.854 94.6681 158.322 96.4595C158.656 97.8845 158.924 99.1466 159.125 100.246C159.76 103.707 160.513 106.373 161.383 108.246L161.483 108.063C162.252 99.0245 162.637 87.93 162.637 74.7794L162.587 74.0466C162.553 73.843 162.537 73.5784 162.537 73.2527C162.537 72.3977 162.771 71.9702 163.239 71.9702C163.54 71.9702 163.801 72.1534 164.022 72.5198C164.236 72.8862 164.343 73.2934 164.343 73.7412V77.833L164.092 78.3215C164.092 82.1893 163.908 88.5407 163.54 97.3755C163.172 106.21 162.821 111.015 162.487 111.788L161.634 112.032V112.094L161.583 112.032L161.082 112.216ZM181.252 112.521C180.75 112.521 180.433 112.452 180.299 112.313C180.165 112.167 180.065 111.788 179.998 111.177C179.697 108.205 179.513 106.353 179.446 105.62L179.195 103.177C178.459 102.974 177.623 102.872 176.686 102.872L174.88 102.75C174.077 102.628 173.492 102.567 173.124 102.567C172.923 102.567 172.806 102.668 172.773 102.872C172.773 102.994 172.756 103.055 172.722 103.055L172.622 104.277C172.589 105.009 172.405 106.475 172.07 108.674C171.903 109.773 171.702 110.628 171.468 111.239C171.2 111.931 170.949 112.277 170.715 112.277C170.515 112.277 170.297 112.163 170.063 111.935C169.829 111.715 169.712 111.483 169.712 111.239L169.762 111.055L169.812 110.872C170.414 107.981 170.916 105.111 171.317 102.261L171.92 98.4748L172.522 93.8335C172.522 93.8335 172.706 92.4899 173.074 89.8028C173.241 88.7035 173.542 86.9325 173.977 84.4897C174.445 81.7211 174.729 79.8279 174.83 78.8101C174.863 78.688 174.93 77.9347 175.03 76.5505C175.164 75.0034 175.281 73.8634 175.382 73.1305C175.482 72.072 175.582 71.4613 175.683 71.2984H176.034C176.134 71.3391 176.251 71.3595 176.385 71.3595C176.787 71.3595 177.088 71.2373 177.288 70.9931C177.522 70.9931 177.73 71.0826 177.911 71.2618C178.098 71.4491 178.191 71.6648 178.191 71.9091C178.191 73.8634 178.309 76.1026 178.543 78.6269C178.677 79.9297 178.777 81.0086 178.844 81.8636C179.212 87.1157 180.148 96.9684 181.654 111.422V111.605C181.654 112.012 181.52 112.317 181.252 112.521ZM178.442 101.528H178.944C178.61 95.6656 177.974 87.0139 177.037 75.5734L174.328 91.8792C173.559 96.5613 173.174 99.513 173.174 100.734C173.174 100.938 173.809 101.121 175.081 101.284C176.352 101.447 177.472 101.528 178.442 101.528ZM195.442 113.01L194.749 112.704C194.348 112.175 193.91 110.77 193.435 108.49C192.973 106.21 192.542 103.645 192.14 100.796C191.873 98.4748 191.488 96.1745 190.986 93.8945C190.585 91.8588 190.2 90.841 189.832 90.841H189.672C188.942 90.841 188.578 91.126 188.578 91.696C188.578 94.6274 188.712 99.0855 188.979 105.07C189.106 108.735 189.254 110.872 189.421 111.483L189.029 112.521H188.327L187.916 112.032C187.387 93.2227 187.123 80.3979 187.123 73.558C187.123 73.1102 187.146 72.7438 187.193 72.4588C187.247 72.1738 187.357 71.9091 187.524 71.6648C187.658 71.3798 187.892 71.2373 188.227 71.2373C189.933 71.2373 191.304 71.7463 192.341 72.7641C193.378 73.782 193.896 75.2476 193.896 77.1612V81.6193C193.896 82.3929 193.686 83.4311 193.264 84.7339C192.849 86.0368 192.391 87.2378 191.889 88.3371L191.237 89.8639C191.605 91.9403 192.331 95.6737 193.415 101.064C194.505 106.463 195.097 109.325 195.191 109.651C195.231 109.691 195.275 109.793 195.321 109.956C195.375 110.119 195.485 110.363 195.653 110.689C195.887 111.259 196.004 111.747 196.004 112.155C196.004 112.725 195.817 113.01 195.442 113.01ZM188.829 89.3142C189.464 89.3142 190.033 88.9275 190.535 88.1539C191.036 87.3803 191.438 86.3828 191.739 85.1614C192.274 82.6779 192.542 80.7033 192.542 79.2376C192.542 78.3012 192.498 77.5276 192.411 76.9169C192.331 76.3062 192.19 75.6548 191.99 74.9626C191.588 73.5377 190.635 72.8252 189.13 72.8252C188.963 72.8252 188.829 72.9962 188.728 73.3382C188.628 73.6883 188.578 74.0466 188.578 74.413C188.578 77.1408 188.608 79.604 188.668 81.8026C188.708 84.0011 188.728 86.4643 188.728 89.1921L188.829 89.3142ZM204.925 112.887C204.825 112.887 204.691 112.806 204.524 112.643C204.356 112.48 204.256 112.338 204.223 112.216C204.524 111.239 204.674 107.676 204.674 101.528C204.674 100.348 204.624 98.658 204.524 96.4595L204.273 92.1235L203.972 91.3296L204.122 90.5967C203.922 90.0267 203.621 89.07 203.219 87.7264C202.818 86.3828 202.416 85.0189 202.015 83.6347C200.811 79.7669 200.025 76.978 199.657 75.268C199.456 74.4537 199.305 73.7005 199.205 73.0084L199.908 72.3366C200.242 72.418 200.727 73.7209 201.363 76.2451C201.864 78.0365 202.316 79.8076 202.717 81.5583L203.319 83.879C203.922 86.4032 204.356 87.706 204.624 87.7875L204.825 86.6882L204.724 86.3828C204.992 85.9757 205.326 84.5304 205.728 82.0468C206.163 79.1969 206.581 76.7948 206.982 74.8405C207.417 72.5605 207.852 71.4206 208.287 71.4206C208.454 71.4206 208.605 71.4816 208.738 71.6038C208.872 71.7259 208.939 71.8684 208.939 72.0313C208.939 72.642 208.437 75.0441 207.434 79.2376C206.932 81.2326 206.514 83.1054 206.179 84.8561C205.778 86.9325 205.577 88.785 205.577 90.4135C205.745 90.8206 205.828 91.1667 205.828 91.4517C205.828 91.6553 205.778 91.9403 205.678 92.3067C205.577 92.6731 205.527 92.9785 205.527 93.2227C205.527 93.4263 205.594 94.3424 205.728 95.9709C205.862 97.0702 205.929 98.0066 205.929 98.7802C205.929 100.572 205.945 102.18 205.979 103.605V108.49V108.735C205.979 111.503 205.628 112.887 204.925 112.887ZM224.644 112.826L223.641 111.91C223.975 108.205 224.142 103.259 224.142 97.0702C224.142 94.3424 224.243 90.2303 224.443 84.7339C224.678 79.6447 224.795 75.553 224.795 72.4588C224.795 72.0923 224.935 71.8073 225.216 71.6038C225.504 71.4002 225.832 71.2984 226.2 71.2984C227.37 71.2984 228.658 71.4613 230.063 71.787C231.468 72.1127 232.17 72.5402 232.17 73.0695C232.17 73.7616 231.585 74.1077 230.414 74.1077C229.678 73.7005 228.742 73.497 227.604 73.497L227.002 73.558C226.902 73.5987 226.825 73.6598 226.772 73.7412C226.725 73.8227 226.685 73.9448 226.651 74.1077C226.584 74.4334 226.517 74.6573 226.45 74.7794C226.45 76.6116 226.384 78.7694 226.25 81.2529C226.082 83.655 225.999 85.7925 225.999 87.6653V89.8028C225.999 89.9657 226.266 90.0267 226.802 89.986C228.508 89.986 229.361 90.3117 229.361 90.9631C229.361 91.2888 229.233 91.5616 228.979 91.7815C228.732 92.0095 228.457 92.1235 228.156 92.1235C227.956 92.1235 227.671 92.0624 227.303 91.9403C226.969 91.8181 226.685 91.7571 226.45 91.7571C225.848 91.7571 225.547 92.7545 225.547 94.7495V101.65C225.547 102.628 225.597 104.073 225.698 105.987C225.798 107.941 225.848 109.406 225.848 110.384C225.848 112.012 225.447 112.826 224.644 112.826ZM239.948 111.971C239.178 111.971 238.727 111.768 238.593 111.361C238.426 111.361 238.292 111.381 238.192 111.422H237.79C237.054 111.422 236.586 111.218 236.385 110.811C236.385 110.526 236.519 110.282 236.787 110.078L237.037 109.773H238.493L238.693 109.529L238.794 108.979L238.844 108.246C238.844 105.763 238.794 103.544 238.693 101.589L238.593 99.3298L238.493 94.8717C238.493 93.2838 238.543 90.9021 238.643 87.7264L238.743 80.6422C238.743 77.548 238.66 75.1866 238.493 73.558C238.191 73.4359 237.69 73.3748 236.987 73.3748L236.435 73.4359C236.235 73.4766 236.017 73.497 235.783 73.497C235.148 73.497 234.83 73.1509 234.83 72.4588C234.83 72.2959 234.98 72.133 235.281 71.9702C235.582 71.8073 235.833 71.7259 236.034 71.7259C237.305 71.7259 238.576 71.8073 239.847 71.9702C240.617 72.0109 241.386 72.1941 242.155 72.5198C242.757 72.7641 243.059 73.1102 243.059 73.558C243.059 73.6395 243.008 73.8023 242.908 74.0466L241.754 74.1687C241.52 73.9244 241.035 73.8023 240.299 73.8023L240.048 73.9855C240.148 74.3519 240.199 75.4309 240.199 77.2223C240.199 79.9094 240.182 82.3318 240.148 84.4897L240.048 91.7571C240.048 93.5892 240.115 95.8081 240.249 98.4137C240.349 101.386 240.399 103.625 240.399 105.132V105.925C240.366 106.21 240.349 106.577 240.349 107.025C240.349 107.961 240.399 108.531 240.5 108.735L240.449 108.857C240.449 109.264 240.817 109.468 241.553 109.468C241.854 109.468 242.105 109.447 242.306 109.406H243.059C244.029 109.406 244.514 109.691 244.514 110.261C244.514 110.628 244.413 110.921 244.213 111.141C244.012 111.369 243.744 111.483 243.41 111.483C243.109 111.483 242.841 111.442 242.607 111.361C242.339 111.32 242.055 111.3 241.754 111.3C241.553 111.3 241.252 111.401 240.851 111.605C240.449 111.849 240.148 111.971 239.948 111.971ZM252.983 111.605L252.431 111.116L252.381 108.857C252.348 108.205 252.331 107.473 252.331 106.658C252.331 106.251 252.348 105.905 252.381 105.62L252.431 104.521C252.431 104.114 252.364 103.625 252.231 103.055C252.231 100.327 252.063 95.2584 251.729 87.8485C251.394 80.6829 251.21 75.8176 251.177 73.2527C249.103 73.2527 247.715 73.1916 247.012 73.0695C246.343 72.8659 246.009 72.5402 246.009 72.0923C246.176 71.6445 246.494 71.4206 246.962 71.4206C247.966 71.4206 249.421 71.502 251.327 71.6648C253.067 71.8684 254.522 71.9702 255.693 71.9702H256.746L257.8 71.9091C258.402 71.9091 258.703 72.1738 258.703 72.703C258.703 72.9473 258.596 73.1387 258.382 73.2771C258.161 73.4237 257.9 73.497 257.599 73.497C256.93 73.497 256.228 73.4562 255.492 73.3748L253.335 73.2527C253.201 73.2527 253.134 73.3137 253.134 73.4359C253.1 73.558 253.084 73.9448 253.084 74.5962C253.084 78.5455 253.284 84.5304 253.686 92.551C254.054 100.857 254.238 106.821 254.238 110.445C254.238 110.73 254.097 110.994 253.816 111.239C253.529 111.483 253.251 111.605 252.983 111.605ZM276.817 112.216C276.549 112.216 276.358 112.094 276.245 111.849C276.124 111.605 276.014 111.239 275.914 110.75C275.88 110.424 275.813 110.139 275.713 109.895L275.763 109.712C275.495 107.798 274.927 105.457 274.057 102.689L273.154 99.513C273.087 99.4316 272.769 98.3934 272.201 96.3984L271.799 94.9327C268.789 83.6143 266.899 77.4869 266.129 76.5505C265.862 77.6498 265.728 79.0747 265.728 80.8254C265.728 81.7618 265.745 82.5761 265.778 83.2682L265.828 85.65L265.778 87.1157C265.745 87.5635 265.728 88.0521 265.728 88.5814C265.728 89.4771 265.761 90.2506 265.828 90.9021C265.895 92.2049 265.929 92.8563 265.929 92.8563H265.778C265.778 99.6555 265.895 103.401 266.129 104.093V109.59C266.263 109.915 266.33 110.343 266.33 110.872C266.33 111.198 266.24 111.483 266.059 111.727C265.872 111.971 265.644 112.094 265.377 112.094C264.674 112.094 264.323 110.994 264.323 108.796L264.423 106.841C264.49 106.231 264.524 105.559 264.524 104.826C264.524 102.872 264.473 99.9405 264.373 96.032C264.273 92.1235 264.223 89.1921 264.223 87.2378C264.223 86.0571 264.273 84.2454 264.373 81.8026C264.473 79.4004 264.524 77.609 264.524 76.4283V75.6344C264.524 73.6395 264.825 72.3366 265.427 71.7259L265.577 71.9091L266.079 71.787C266.213 71.8277 266.363 71.9498 266.531 72.1534C266.664 72.3163 266.731 72.4995 266.731 72.703L266.832 73.0695C266.832 73.1509 266.842 73.2201 266.862 73.2771C266.875 73.3422 266.882 73.3748 266.882 73.3748C267.417 76.2655 268.621 80.3165 270.495 85.5279C272.401 91.0242 273.589 94.6681 274.057 96.4595C274.392 97.8845 274.659 99.1466 274.86 100.246C275.495 103.707 276.248 106.373 277.118 108.246L277.218 108.063C277.987 99.0245 278.372 87.93 278.372 74.7794L278.322 74.0466C278.289 73.843 278.272 73.5784 278.272 73.2527C278.272 72.3977 278.506 71.9702 278.974 71.9702C279.275 71.9702 279.536 72.1534 279.757 72.5198C279.971 72.8862 280.078 73.2934 280.078 73.7412V77.833L279.827 78.3215C279.827 82.1893 279.643 88.5407 279.275 97.3755C278.907 106.21 278.556 111.015 278.222 111.788L277.369 112.032V112.094L277.318 112.032L276.817 112.216ZM288.056 112.765C287.454 112.765 287.119 112.338 287.053 111.483V110.689C287.086 110.485 287.103 110.241 287.103 109.956L286.902 109.712C287.17 108.857 287.303 108.022 287.303 107.208C287.303 106.271 287.253 104.928 287.153 103.177L287.053 99.1466C287.053 97.1109 287.103 94.0574 287.203 89.986C287.337 86.3625 287.404 83.2886 287.404 80.7644L287.303 77.1001C287.236 76.0008 287.203 74.7794 287.203 73.4359C287.203 72.8252 287.32 72.3855 287.554 72.1168C287.788 71.8562 288.156 71.7259 288.658 71.7259C288.993 71.7259 289.26 71.848 289.461 72.0923C289.528 72.133 290.013 72.2145 290.916 72.3366C291.752 72.4588 292.471 72.642 293.074 72.8862C293.709 73.1305 294.027 73.4359 294.027 73.8023C294.027 74.2094 293.709 74.6166 293.074 75.0237C291.167 74.2502 289.812 73.8634 289.009 73.8634L288.758 74.2298C288.792 74.5962 288.809 75.4716 288.809 76.8558C288.809 78.6065 288.775 80.174 288.708 81.5583C288.675 82.9833 288.658 84.5711 288.658 86.3218C288.658 87.4618 288.892 88.0318 289.361 88.0318L290.163 87.9707C290.431 87.93 290.715 87.9096 291.016 87.9096C292.321 87.9096 292.973 88.276 292.973 89.0089C292.973 89.4567 292.89 89.8313 292.722 90.1326C292.555 90.442 292.304 90.5967 291.97 90.5967C291.468 90.5967 291.083 90.4339 290.816 90.1082L289.21 89.8028H288.959L288.708 90.1082V90.2914C288.775 90.9835 288.809 92.5917 288.809 95.1159C288.809 96.7038 288.792 98.1491 288.758 99.4519L288.708 103.788C288.708 105.376 288.758 107.004 288.859 108.674C288.892 109.61 289.06 110.229 289.361 110.53C289.662 110.84 290.214 110.994 291.016 110.994L291.92 110.933C292.221 110.893 292.555 110.872 292.923 110.872C293.893 110.872 294.378 111.137 294.378 111.666C294.378 112.399 293.642 112.765 292.17 112.765H288.056ZM300.5 112.704C300.132 112.623 299.78 112.452 299.446 112.191C299.111 111.923 298.927 111.605 298.894 111.239L299.145 110.75C299.279 110.75 299.58 110.811 300.048 110.933C300.416 111.096 300.717 111.177 300.951 111.177C301.687 111.177 302.339 110.819 302.908 110.103C303.477 109.394 303.912 108.47 304.213 107.33C304.681 105.213 304.915 103.218 304.915 101.345C304.915 98.5359 304.213 95.5231 302.808 92.3067C301.938 90.4339 301.269 88.9478 300.801 87.8485C300.332 86.7493 299.914 85.4871 299.546 84.0622C299.111 82.3929 298.894 80.7847 298.894 79.2376C298.894 77.7719 299.195 76.0416 299.797 74.0466C300.098 73.1102 300.523 72.3448 301.072 71.7503C301.627 71.1641 302.222 70.8709 302.858 70.8709C303.293 70.8709 303.718 71.0541 304.132 71.4206C304.554 71.787 304.765 72.1738 304.765 72.5809C304.765 72.9066 304.547 73.0695 304.112 73.0695C303.978 73.0695 303.811 73.0084 303.61 72.8862C303.41 72.7641 303.226 72.703 303.059 72.703C302.557 72.703 302.105 72.9473 301.704 73.4359C301.302 73.9244 301.001 74.5555 300.801 75.3291C300.399 76.8355 300.199 78.2197 300.199 79.4819C300.199 80.2554 300.282 81.0493 300.449 81.8636C300.483 82.1079 300.516 82.3115 300.55 82.4743C300.583 82.6372 300.6 82.7593 300.6 82.8408L300.901 84.0622L301.152 85.1614L301.553 86.2607C301.654 86.5457 301.761 86.7981 301.874 87.018C301.995 87.246 302.105 87.4618 302.206 87.6653L302.808 88.9478C302.941 89.1921 303.226 89.7702 303.661 90.6822C304.095 91.6023 304.497 92.5713 304.865 93.5892C305.199 94.4442 305.45 95.2462 305.617 95.9954C305.785 96.7526 305.935 97.6605 306.069 98.7191C306.169 99.7369 306.22 100.857 306.22 102.078C306.22 104.032 306.002 105.864 305.567 107.574C304.965 109.61 304.095 111.035 302.958 111.849C302.323 112.338 301.587 112.582 300.75 112.582L300.5 112.704ZM304.463 72.8862H304.514C304.514 72.8455 304.497 72.8252 304.463 72.8252V72.8862ZM311.829 112.704C311.461 112.623 311.11 112.452 310.776 112.191C310.441 111.923 310.257 111.605 310.224 111.239L310.474 110.75C310.608 110.75 310.909 110.811 311.378 110.933C311.746 111.096 312.047 111.177 312.281 111.177C313.017 111.177 313.669 110.819 314.238 110.103C314.806 109.394 315.241 108.47 315.542 107.33C316.011 105.213 316.245 103.218 316.245 101.345C316.245 98.5359 315.542 95.5231 314.137 92.3067C313.268 90.4339 312.599 88.9478 312.13 87.8485C311.662 86.7493 311.244 85.4871 310.876 84.0622C310.441 82.3929 310.224 80.7847 310.224 79.2376C310.224 77.7719 310.525 76.0416 311.127 74.0466C311.428 73.1102 311.856 72.3448 312.411 71.7503C312.96 71.1641 313.552 70.8709 314.187 70.8709C314.622 70.8709 315.05 71.0541 315.472 71.4206C315.887 71.787 316.094 72.1738 316.094 72.5809C316.094 72.9066 315.877 73.0695 315.442 73.0695C315.308 73.0695 315.141 73.0084 314.94 72.8862C314.739 72.7641 314.555 72.703 314.388 72.703C313.886 72.703 313.435 72.9473 313.033 73.4359C312.632 73.9244 312.331 74.5555 312.13 75.3291C311.729 76.8355 311.528 78.2197 311.528 79.4819C311.528 80.2554 311.612 81.0493 311.779 81.8636C311.812 82.1079 311.846 82.3115 311.879 82.4743C311.913 82.6372 311.93 82.7593 311.93 82.8408L312.231 84.0622L312.482 85.1614L312.883 86.2607C312.983 86.5457 313.094 86.7981 313.214 87.018C313.328 87.246 313.435 87.4618 313.535 87.6653L314.137 88.9478C314.271 89.1921 314.555 89.7702 314.99 90.6822C315.425 91.6023 315.827 92.5713 316.194 93.5892C316.529 94.4442 316.78 95.2462 316.947 95.9954C317.114 96.7526 317.265 97.6605 317.399 98.7191C317.499 99.7369 317.549 100.857 317.549 102.078C317.549 104.032 317.332 105.864 316.897 107.574C316.295 109.61 315.425 111.035 314.288 111.849C313.652 112.338 312.916 112.582 312.08 112.582L311.829 112.704ZM315.793 72.8862H315.843C315.843 72.8455 315.827 72.8252 315.793 72.8252V72.8862ZM323.57 112.216C323.269 112.216 323.012 112.061 322.798 111.752C322.577 111.45 322.466 111.116 322.466 110.75C322.466 110.343 322.6 109.964 322.868 109.614C323.135 109.272 323.437 109.101 323.771 109.101C324.039 109.101 324.306 109.272 324.574 109.614C324.841 109.964 324.975 110.323 324.975 110.689C324.975 111.707 324.507 112.216 323.57 112.216Z" fill="#AA3131"/>
</g>
</g>
</g>
</g>
</g>
</g>
<defs>
<clipPath id="clip0_2_60">
<rect width="350" height="200.55" fill="white"/>
</clipPath>
<clipPath id="clip1_2_60">
<rect width="350" height="57.8435" fill="white"/>
</clipPath>
<clipPath id="clip2_2_60">
<rect width="350" height="51.1863" fill="white" transform="translate(0 3.32857)"/>
</clipPath>
<clipPath id="clip3_2_60">
<rect width="350" height="51.1863" fill="white" transform="translate(0 3.32857)"/>
</clipPath>
<clipPath id="clip4_2_60">
<rect width="350" height="51.1863" fill="white" transform="translate(0 3.32857)"/>
</clipPath>
<clipPath id="clip5_2_60">
<rect width="350" height="51.1863" fill="white" transform="translate(0 3.32857)"/>
</clipPath>
<clipPath id="clip6_2_60">
<rect width="350" height="51.1863" fill="white" transform="translate(0 3.32857)"/>
</clipPath>
<clipPath id="clip7_2_60">
<rect width="300" height="42.7494" fill="white" transform="translate(25 70.3824)"/>
</clipPath>
<clipPath id="clip8_2_60">
<rect width="300" height="42.7494" fill="white" transform="translate(25 70.3824)"/>
</clipPath>
<clipPath id="clip9_2_60">
<rect width="300" height="42.7494" fill="white" transform="translate(25 70.3824)"/>
</clipPath>
<clipPath id="clip10_2_60">
<rect width="300" height="42.7494" fill="white" transform="translate(25 70.3824)"/>
</clipPath>
<clipPath id="clip11_2_60">
<rect width="300" height="42.7494" fill="white" transform="translate(25 70.3824)"/>
</clipPath>
</defs>
</svg>
