<svg width="557" height="208" viewBox="0 0 557 208" fill="none" xmlns="http://www.w3.org/2000/svg">
<g clip-path="url(#clip0_6_4)">
<g clip-path="url(#clip1_6_4)">
<g clip-path="url(#clip2_6_4)">
<g clip-path="url(#clip3_6_4)">
<g clip-path="url(#clip4_6_4)">
<g clip-path="url(#clip5_6_4)">
<path d="M27.572 94.3632L69.6391 94.5291L69.6168 100.17L0.0355376 99.8956L0.0577845 94.2547L9.83555 94.2933L10.1749 8.23697L64.7485 8.4522L64.6776 26.4243L27.8405 26.279L27.7623 46.0877L62.7804 46.2258L62.7095 64.198L27.6915 64.0599L27.572 94.3632ZM68.3884 94.5242L79.4168 94.5677L79.7562 8.51139L137.058 8.73738L136.987 26.9719L97.4207 26.8158L97.3462 45.7062L132.933 45.8466L132.864 63.294L97.2774 63.1536L97.2024 82.1752L138.019 82.3362L137.97 94.7986L148.998 94.8421L148.976 100.483L68.3662 100.165L68.3884 94.5242ZM227.084 95.1501L240.295 95.2022L240.273 100.843L210.371 100.725L203.059 80.8873L169.724 80.7558L162.255 100.535L132.376 100.418L132.399 94.7766L145.474 94.8282L178.102 8.89925L195.27 8.96696L227.084 95.1501ZM196.422 62.8887L186.636 36.2195L176.525 62.8102L196.422 62.8887ZM266.309 95.3048L292.004 95.4061L291.981 101.047L222.855 100.774L222.877 95.1335L248.572 95.2348L248.842 26.8883L226.33 26.7995L226.4 9.08973L289.16 9.33724L289.09 27.047L266.578 26.9582L266.309 95.3048ZM362.04 95.6823L377.275 95.7424L377.253 101.383L291.981 101.047L292.004 95.4061L316.675 95.5034C310.628 91.3691 305.897 85.7707 302.484 78.7082C299.055 71.6631 297.359 63.6804 297.394 54.7599C297.447 41.2917 301.532 30.0259 309.647 20.9624C317.748 11.8988 327.506 7.38951 338.921 7.43453C350.321 7.47949 360.21 11.8476 368.589 20.5389L359.32 35.851C355.771 32.2513 352.507 29.7634 349.526 28.3873C346.529 27.0287 343.288 26.3425 339.801 26.3287C333.055 26.3021 327.36 28.9208 322.716 34.1849C318.071 39.4665 315.732 46.4363 315.698 55.0944C315.664 63.7525 317.857 70.6878 322.278 75.9002C326.684 81.13 331.957 83.757 338.097 83.7812C344.236 83.8054 349.358 82.47 353.461 79.775L353.561 54.5878L371.411 54.6582L371.283 87.1917C368.692 90.5049 365.611 93.3351 362.04 95.6823ZM419.91 95.9105L446.174 96.0141L446.152 101.655L375.888 101.378L375.91 95.737L402.174 95.8406L402.295 65.2749L374.999 9.67578L394.214 9.75156L411.247 43.927L428.549 9.88698L447.764 9.96276L420.031 65.3448L419.91 95.9105ZM527.102 101.974L527.33 44.2536L505.644 94.2809L495.07 94.2392L473.893 44.0428L473.666 101.764L444.901 101.65L444.923 96.0092L455.952 96.0527L456.291 9.99639L480.281 10.091L500.547 60.5461L521.325 10.2529L545.2 10.347L544.861 96.4033L555.89 96.4468L555.867 102.088L527.102 101.974Z" fill="#5D0000"/>
</g>
</g>
</g>
</g>
</g>
</g>
<g clip-path="url(#clip6_6_4)">
<g clip-path="url(#clip7_6_4)">
<g clip-path="url(#clip8_6_4)">
<g clip-path="url(#clip9_6_4)">
<g clip-path="url(#clip10_6_4)">
<path d="M41.8758 204.672C40.9196 204.668 40.3914 203.883 40.2913 202.315L40.2971 200.861C40.3517 200.488 40.38 200.04 40.3821 199.518L40.0651 199.069C40.4962 197.504 40.7148 195.976 40.7207 194.483C40.7274 192.768 40.6575 190.305 40.5107 187.097L40.3805 179.71C40.3952 175.98 40.497 170.385 40.6858 162.925C40.9244 156.286 41.0529 150.653 41.0711 146.028L40.9382 139.313C40.8399 137.298 40.7956 135.059 40.8054 132.597C40.8098 131.478 40.9989 130.673 41.3727 130.182C41.7465 129.706 42.3318 129.47 43.1286 129.473C43.6599 129.475 44.084 129.701 44.401 130.15C44.5069 130.225 45.2766 130.377 46.7101 130.606C48.0373 130.835 49.1782 131.176 50.1327 131.627C51.1403 132.079 51.6427 132.64 51.6401 133.312C51.6372 134.058 51.1295 134.802 50.1172 135.544C47.0947 134.114 44.946 133.397 43.671 133.392L43.2699 134.062C43.3204 134.734 43.3406 136.338 43.3306 138.874C43.318 142.082 43.2535 144.955 43.1373 147.491C43.0738 150.102 43.0358 153.011 43.0231 156.219C43.0149 158.308 43.3827 159.354 44.1264 159.357L45.4018 159.25C45.8271 159.177 46.2788 159.142 46.7569 159.144C48.8288 159.152 49.8621 159.827 49.8568 161.17C49.8535 161.991 49.718 162.677 49.4502 163.228C49.1824 163.794 48.7828 164.076 48.2516 164.074C47.4547 164.07 46.845 163.77 46.4223 163.171L43.8745 162.602L43.4761 162.6L43.0755 163.158L43.0741 163.494C43.1754 164.762 43.2169 167.709 43.1987 172.335C43.1872 175.245 43.1502 177.893 43.0876 180.28L42.9766 188.225C42.9651 191.135 43.033 194.12 43.1804 197.179C43.2267 198.895 43.4879 200.03 43.9638 200.584C44.4397 201.153 45.3151 201.44 46.5901 201.445L48.0249 201.339C48.5033 201.266 49.0347 201.231 49.6191 201.233C51.1597 201.239 51.9281 201.727 51.9243 202.697C51.919 204.04 50.7476 204.707 48.4101 204.698L41.8758 204.672ZM67.8541 204.662L66.9815 203.652C67.0042 197.907 66.3841 189.437 65.1214 178.241C63.8693 167.045 62.207 154.803 60.1344 141.515L59.5105 138.043L58.4949 132.891C58.1823 131.323 58.0268 130.353 58.0283 129.98C58.0292 129.756 58.1471 129.473 58.3822 129.13C58.6279 128.803 58.857 128.64 59.0695 128.641C59.8132 128.644 60.393 129.802 60.8089 132.117C61.0176 133.088 61.2098 134.185 61.3856 135.409C61.572 136.648 61.7173 137.529 61.8215 138.052C61.9233 139.172 62.0003 139.843 62.0526 140.067C63.0393 145.816 63.6358 149.474 63.8421 151.042L64.6165 156.752L65.3125 162.127L66.0071 167.837C66.1586 169.852 66.3641 171.606 66.6239 173.099L67.7759 184.071C67.7748 184.369 67.9532 186.272 68.3112 189.78L68.8474 195.266C69.929 190.421 70.8613 183.038 71.6441 173.119C72.4244 163.871 73.5235 154.586 74.9415 145.266C76.142 137.213 76.9886 131.36 77.4811 127.706L78.5192 127.151C78.7314 127.226 78.9274 127.376 79.1071 127.601C79.2975 127.825 79.3922 128.049 79.3914 128.273C79.3849 129.915 79.137 132.152 78.6477 134.985L78.1581 137.893L76.7686 146.728C75.9526 151.574 75.3907 155.302 75.0829 157.912C74.7857 160.523 74.4415 164.289 74.0502 169.211L73.8807 171.785C73.5992 175.812 73.3865 178.535 73.2428 179.952C73.1097 181.369 72.7997 183.195 72.3128 185.431C71.879 187.668 71.5258 189.644 71.2535 191.358L71.0839 193.932C70.9674 196.543 70.7458 198.854 70.4191 200.868C69.9841 203.402 69.1291 204.667 67.8541 204.662ZM68.7646 196.049L68.7664 195.601L68.6858 195.825L68.7646 196.049ZM97.4148 205.562C91.1992 205.538 88.1456 191.798 88.2538 164.343L88.2693 160.426C88.3514 139.612 90.3049 129.212 94.1299 129.227C94.3955 129.228 94.7616 129.341 95.2282 129.567C96.9356 130.394 98.6123 130.923 100.258 131.153C101.266 131.456 102.27 132.914 103.269 135.53C104.374 138.22 105.194 141.767 105.729 146.171C106.275 150.575 106.539 155.09 106.521 159.715L106.359 160.274C106.349 162.736 106.367 164.937 106.413 166.877L106.466 173.592C106.451 177.397 106.331 180.828 106.107 183.886C105.77 188.51 105.223 192.5 104.466 195.854C103.969 197.866 103.415 199.543 102.804 200.883C102.193 202.224 101.429 203.34 100.512 204.232C99.669 205.124 98.6366 205.567 97.4148 205.562ZM97.1088 202.316C99.1807 202.324 100.724 200.278 101.739 196.179C102.775 192.005 103.408 187.755 103.638 183.429C103.868 178.953 103.989 175.373 103.999 172.687C104.011 169.703 103.869 165.3 103.573 159.48C103.333 152.988 103.218 148.586 103.227 146.273L102.912 145.376L103.073 144.817C103.086 141.535 102.444 138.697 101.146 136.305C99.8489 133.912 98.2705 132.712 96.4112 132.705C93.9781 132.695 92.5107 134.331 92.009 137.612C91.9089 138.73 91.8017 140.334 91.6872 142.422C91.6654 147.943 91.4859 151.71 91.1486 153.723C91.1441 154.842 91.0629 156.595 90.9047 158.982L90.7086 164.241C90.7022 165.882 90.7283 167.337 90.787 168.606L90.8491 173.083C90.8352 176.589 91.0265 180.618 91.423 185.171C91.7391 188.53 92.1051 191.366 92.521 193.681C92.9368 195.995 93.54 197.974 94.3304 199.619C95.1202 201.413 96.0463 202.312 97.1088 202.316ZM118.12 204.973C117.376 204.97 116.928 204.11 116.775 202.393C116.884 201.946 116.941 200.715 116.949 198.701C116.976 191.837 117.096 181.654 117.309 168.151C117.521 154.723 117.639 145.024 117.663 139.056L117.838 135.028L118.09 131.671C118.092 131.149 118.279 130.889 118.651 130.89C118.917 130.891 119.288 131.005 119.766 131.23L120.004 131.343C119.998 132.984 119.965 134.476 119.907 135.819L119.89 140.184L119.841 152.382C119.88 155.963 119.891 160.029 119.873 164.58C119.818 164.953 119.789 165.773 119.784 167.042L119.695 169.391C119.636 170.883 119.603 172.413 119.597 173.979C119.59 175.695 119.611 177.262 119.658 178.68L119.719 183.492L119.476 184.386L119.556 184.275C119.555 184.499 119.528 184.648 119.475 184.722L119.473 185.17C119.471 185.767 119.548 186.289 119.706 186.737L119.425 197.48L119.422 198.151C119.417 199.419 119.441 200.166 119.493 200.39C119.491 200.763 119.623 200.95 119.889 200.951L124.032 201.191C125.254 201.196 126.093 201.214 126.55 201.246C126.996 201.292 127.272 201.316 127.378 201.316L127.617 201.317C127.883 201.318 128.148 201.521 128.412 201.924C128.676 202.343 128.807 202.776 128.805 203.224C128.802 204.119 128.375 204.603 127.524 204.674C126.622 204.596 124.417 204.55 120.911 204.536L121.07 204.648C120.538 204.646 120.034 204.682 119.555 204.754C119.13 204.902 118.651 204.975 118.12 204.973ZM144.894 205.302C144.044 205.299 143.132 204.907 142.157 204.127C141.172 203.333 140.363 202.412 139.73 201.365C138.991 200.019 138.422 196.249 138.021 190.055C137.621 183.861 137.383 176.773 137.308 168.789C137.315 166.999 137.294 165.656 137.244 164.76C137.212 146.034 137.043 134.954 136.738 131.521L137.222 129.956C138.443 130.185 139.046 132.239 139.031 136.118L139.153 165.775C139.145 167.864 139.262 171.819 139.504 177.639C139.803 182.863 139.946 186.817 139.936 189.503C139.902 198.008 141.878 202.269 145.862 202.284C148.306 202.294 149.904 194.466 150.656 178.802L150.745 176.564C151.198 156.049 151.443 140.868 151.482 131.02L151.406 130.012C151.354 129.713 151.329 129.378 151.331 129.005C151.334 128.184 151.787 127.775 152.69 127.779C153.328 127.781 153.725 128.007 153.883 128.455C153.986 129.202 154.034 130.507 154.027 132.373C154.004 138.043 153.83 141.847 153.504 143.785L153.581 144.457C153.577 145.427 153.491 146.919 153.324 148.932L153.147 153.408L153.143 154.527C153.195 154.826 153.22 155.199 153.218 155.647C153.105 157.437 153.045 159.153 153.038 160.794C152.983 161.316 152.953 162.136 152.949 163.256C152.815 170.343 152.684 176.497 152.557 181.719C152.372 188.209 151.713 193.69 150.58 198.162C149.392 202.932 147.497 205.312 144.894 205.302ZM171.837 203.058L170.964 202.159L170.901 198.018C170.852 196.825 170.831 195.482 170.837 193.989C170.84 193.243 170.869 192.609 170.924 192.087L171.012 190.073C171.015 189.327 170.912 188.432 170.704 187.386C170.723 182.388 170.494 173.098 170.017 159.518C169.537 146.385 169.28 137.469 169.246 132.768C165.952 132.755 163.748 132.635 162.633 132.406C161.572 132.029 161.043 131.43 161.046 130.61C161.315 129.79 161.821 129.382 162.565 129.385C164.159 129.391 166.469 129.549 169.496 129.86C172.257 130.244 174.567 130.439 176.427 130.446L178.1 130.453L179.774 130.348C180.73 130.352 181.206 130.838 181.203 131.808C181.201 132.256 181.024 132.606 180.673 132.858C180.331 133.125 179.922 133.258 179.444 133.256C178.381 133.252 177.266 133.173 176.098 133.019L172.672 132.782C172.46 132.781 172.353 132.892 172.352 133.116C172.298 133.34 172.269 134.049 172.264 135.242C172.236 142.479 172.511 153.447 173.091 168.147C173.615 183.369 173.864 194.3 173.838 200.94C173.836 201.462 173.605 201.946 173.147 202.392C172.699 202.838 172.262 203.06 171.837 203.058ZM193.669 203.816C192.447 203.811 191.731 203.435 191.522 202.688C191.256 202.687 191.043 202.724 190.884 202.798L190.246 202.795C189.077 202.79 188.335 202.414 188.019 201.667C188.021 201.145 188.236 200.698 188.662 200.327L189.063 199.769L191.374 199.778L191.694 199.331L191.858 198.325L191.943 196.982C191.96 192.431 191.897 188.365 191.752 184.783L191.609 180.642L191.481 172.472C191.493 169.563 191.59 165.198 191.772 159.38L191.983 146.399C192.005 140.729 191.889 136.401 191.635 133.416C191.158 133.19 190.362 133.075 189.246 133.071L188.369 133.179C188.05 133.253 187.705 133.289 187.333 133.287C186.323 133.283 185.821 132.647 185.826 131.379C185.827 131.08 186.068 130.783 186.547 130.486C187.026 130.19 187.425 130.042 187.744 130.043C189.763 130.051 191.781 130.209 193.798 130.515C195.02 130.594 196.241 130.935 197.46 131.537C198.415 131.988 198.89 132.624 198.887 133.445C198.886 133.594 198.805 133.892 198.644 134.339L196.811 134.556C196.441 134.107 195.671 133.88 194.502 133.875L194.103 134.209C194.259 134.881 194.331 136.859 194.318 140.141C194.299 145.065 194.255 149.504 194.186 153.458L193.974 166.775C193.961 170.132 194.051 174.198 194.245 178.974C194.383 184.421 194.446 188.524 194.435 191.285L194.43 192.74C194.374 193.262 194.345 193.933 194.342 194.754C194.335 196.47 194.411 197.514 194.569 197.888L194.488 198.111C194.485 198.858 195.068 199.233 196.237 199.237C196.715 199.239 197.113 199.204 197.433 199.13L198.628 199.135C200.168 199.141 200.937 199.666 200.933 200.711C200.93 201.382 200.768 201.919 200.448 202.32C200.128 202.737 199.702 202.944 199.171 202.942C198.692 202.94 198.268 202.864 197.897 202.713C197.472 202.637 197.02 202.598 196.542 202.596C196.224 202.595 195.745 202.779 195.106 203.15C194.466 203.595 193.987 203.817 193.669 203.816ZM216.514 206.032C210.299 206.008 207.245 192.268 207.354 164.813L207.369 160.896C207.451 140.081 209.405 129.681 213.23 129.696C213.495 129.697 213.867 129.811 214.344 130.036C216.041 130.864 217.712 131.393 219.358 131.623C220.366 131.925 221.37 133.384 222.369 135.999C223.474 138.69 224.299 142.237 224.845 146.641C225.38 151.045 225.639 155.559 225.62 160.185L225.459 160.744C225.449 163.206 225.467 165.407 225.512 167.347L225.566 174.061C225.551 177.866 225.431 181.298 225.206 184.356C224.869 188.98 224.322 192.969 223.565 196.324C223.079 198.336 222.531 200.013 221.92 201.353C221.298 202.694 220.534 203.81 219.628 204.701C218.774 205.593 217.736 206.037 216.514 206.032ZM216.209 202.785C218.28 202.794 219.829 200.748 220.855 196.649C221.88 192.475 222.508 188.225 222.738 183.898C222.968 179.423 223.088 175.842 223.099 173.156C223.111 170.172 222.969 165.77 222.673 159.949C222.433 153.458 222.317 149.055 222.326 146.743L222.011 145.846L222.173 145.287C222.186 142.004 221.549 139.167 220.262 136.774C218.965 134.382 217.386 133.182 215.527 133.175C213.083 133.165 211.616 134.801 211.125 138.081C211.014 139.2 210.901 140.804 210.787 142.892C210.765 148.413 210.591 152.18 210.264 154.193C210.26 155.312 210.173 157.065 210.004 159.452L209.824 164.711C209.818 166.352 209.839 167.807 209.887 169.076L209.949 173.552C209.935 177.059 210.132 181.088 210.539 185.641C210.844 188.999 211.205 191.836 211.621 194.15C212.037 196.465 212.64 198.444 213.43 200.089C214.22 201.882 215.146 202.781 216.209 202.785ZM256.125 204.51C255.7 204.508 255.398 204.283 255.22 203.835C255.03 203.386 254.857 202.714 254.702 201.818C254.651 201.221 254.547 200.698 254.389 200.25L254.47 199.915C254.059 196.407 253.173 192.113 251.811 187.035L250.4 181.21C250.294 181.06 249.797 179.156 248.909 175.496L248.282 172.808C243.582 152.049 240.625 140.809 239.41 139.088C238.977 141.101 238.754 143.711 238.741 146.919C238.735 148.635 238.755 150.127 238.803 151.396L238.866 155.761L238.776 158.446C238.719 159.267 238.689 160.162 238.685 161.132C238.679 162.773 238.726 164.191 238.828 165.385C238.925 167.773 238.973 168.966 238.973 168.966L238.734 168.966C238.685 181.425 238.844 188.289 239.211 189.559L239.171 199.631C239.381 200.228 239.484 201.012 239.481 201.982C239.478 202.579 239.327 203.1 239.028 203.547C238.739 203.993 238.383 204.216 237.958 204.214C236.842 204.21 236.292 202.193 236.308 198.165L236.482 194.584C236.592 193.465 236.65 192.235 236.656 190.892C236.67 187.311 236.611 181.939 236.48 174.776C236.349 167.613 236.29 162.241 236.305 158.66C236.313 156.497 236.406 153.177 236.583 148.701C236.76 144.3 236.852 141.018 236.861 138.854L236.867 137.399C236.881 133.744 237.368 131.358 238.329 130.243L238.567 130.58L239.365 130.359C239.577 130.434 239.815 130.659 240.079 131.033C240.29 131.333 240.395 131.669 240.394 132.042L240.551 132.714C240.55 132.863 240.565 132.99 240.597 133.094C240.618 133.214 240.628 133.274 240.628 133.274C241.457 138.574 243.34 146.005 246.278 155.566C249.266 165.65 251.126 172.334 251.856 175.62C252.377 178.233 252.793 180.548 253.104 182.563C254.088 188.909 255.264 193.8 256.632 197.237L256.793 196.902C258.08 180.345 258.771 160.017 258.866 135.919L258.792 134.576C258.74 134.203 258.716 133.718 258.718 133.121C258.724 131.554 259.099 130.773 259.843 130.775C260.321 130.777 260.734 131.115 261.082 131.788C261.419 132.46 261.586 133.207 261.583 134.028L261.553 141.526L261.152 142.419C261.124 149.507 260.785 161.144 260.137 177.331C259.489 193.518 258.897 202.32 258.36 203.735L257.003 204.177L257.003 204.289L256.924 204.177L256.125 204.51ZM288.157 205.196C287.36 205.192 286.856 205.064 286.645 204.809C286.433 204.54 286.277 203.845 286.175 202.726C285.718 197.278 285.439 193.882 285.338 192.539L284.958 188.061C283.79 187.683 282.463 187.491 280.975 187.485L278.108 187.25C276.834 187.021 275.904 186.906 275.32 186.904C275.001 186.902 274.814 187.088 274.76 187.461C274.759 187.685 274.732 187.796 274.679 187.796L274.511 190.034C274.452 191.377 274.149 194.061 273.602 198.088C273.329 200.101 273.004 201.667 272.628 202.784C272.198 204.051 271.797 204.683 271.425 204.682C271.106 204.681 270.762 204.47 270.391 204.051C270.021 203.647 269.837 203.221 269.839 202.773L269.92 202.438L270.001 202.102C270.978 196.809 271.795 191.553 272.453 186.333L273.437 179.398L274.427 170.897C274.427 170.897 274.729 168.436 275.332 163.514C275.606 161.501 276.097 158.258 276.805 153.784C277.569 148.714 278.034 145.246 278.201 143.382C278.255 143.158 278.367 141.778 278.536 139.242C278.76 136.408 278.954 134.32 279.119 132.978C279.286 131.039 279.449 129.92 279.61 129.622L280.168 129.625C280.327 129.7 280.513 129.738 280.725 129.739C281.363 129.741 281.842 129.519 282.162 129.073C282.534 129.074 282.863 129.24 283.148 129.569C283.444 129.914 283.592 130.31 283.59 130.757C283.576 134.338 283.745 138.442 284.099 143.069C284.302 145.458 284.454 147.435 284.554 149.002C285.1 158.629 286.516 176.689 288.803 203.184L288.801 203.519C288.798 204.265 288.584 204.824 288.157 205.196ZM283.774 185.034L284.571 185.038C284.082 174.292 283.135 158.435 281.731 137.465L277.31 167.327C276.054 175.902 275.422 181.308 275.413 183.547C275.411 183.92 276.419 184.259 278.437 184.566C280.454 184.872 282.234 185.028 283.774 185.034ZM310.689 206.18L309.592 205.616C308.958 204.643 308.272 202.067 307.534 197.886C306.818 193.705 306.151 189.002 305.534 183.777C305.126 179.523 304.531 175.305 303.751 171.124C303.128 167.392 302.525 165.524 301.94 165.522L301.685 165.521C300.527 165.516 299.946 166.036 299.942 167.081C299.921 172.452 300.101 180.622 300.483 191.591C300.658 198.306 300.876 202.224 301.138 203.344L300.509 205.244L299.393 205.24L298.743 204.342C298.04 169.871 297.713 146.368 297.762 133.835C297.765 133.014 297.805 132.343 297.882 131.821C297.969 131.299 298.146 130.815 298.413 130.368C298.628 129.847 299.001 129.587 299.532 129.589C302.241 129.6 304.416 130.541 306.055 132.413C307.695 134.284 308.508 136.973 308.494 140.48L308.462 148.649C308.456 150.067 308.114 151.968 307.435 154.352C306.767 156.737 306.03 158.935 305.226 160.946L304.179 163.74C304.748 167.547 305.874 174.393 307.556 184.278C309.249 194.177 310.169 199.426 310.315 200.023C310.378 200.098 310.447 200.285 310.52 200.583C310.604 200.882 310.777 201.331 311.041 201.928C311.408 202.974 311.591 203.87 311.588 204.616C311.584 205.661 311.284 206.182 310.689 206.18ZM300.358 162.718C301.367 162.722 302.273 162.017 303.075 160.602C303.878 159.188 304.523 157.362 305.009 155.126C305.877 150.579 306.317 146.962 306.327 144.276C306.334 142.56 306.271 141.142 306.137 140.023C306.014 138.903 305.795 137.709 305.482 136.439C304.854 133.825 303.345 132.514 300.955 132.504C300.689 132.503 300.476 132.816 300.314 133.442C300.152 134.083 300.07 134.739 300.067 135.411C300.047 140.409 300.077 144.923 300.157 148.952C300.205 152.981 300.219 157.495 300.199 162.493L300.358 162.718ZM325.751 206.015C325.591 206.015 325.379 205.865 325.115 205.565C324.851 205.266 324.692 205.004 324.64 204.78C325.125 202.991 325.39 196.464 325.434 185.199C325.443 183.035 325.375 179.939 325.232 175.909L324.865 167.962L324.392 166.506L324.637 165.164C324.322 164.118 323.851 162.363 323.223 159.898C322.595 157.434 321.968 154.932 321.34 152.393C319.456 145.298 318.228 140.182 317.656 137.047C317.343 135.553 317.109 134.172 316.955 132.903L318.075 131.677C318.606 131.828 319.367 134.218 320.358 138.848C321.142 142.134 321.846 145.382 322.471 148.592L323.41 152.849C324.348 157.478 325.03 159.868 325.454 160.019L325.781 158.006L325.624 157.446C326.051 156.701 326.593 154.055 327.249 149.506C327.96 144.287 328.641 139.888 329.293 136.309C330 132.134 330.699 130.048 331.389 130.05C331.655 130.051 331.894 130.164 332.105 130.389C332.317 130.614 332.422 130.875 332.421 131.174C332.417 132.293 331.602 136.691 329.978 144.369C329.167 148.022 328.489 151.451 327.945 154.657C327.293 158.459 326.961 161.853 326.949 164.837C327.212 165.584 327.342 166.219 327.34 166.741C327.339 167.114 327.257 167.636 327.095 168.307C326.933 168.978 326.851 169.537 326.849 169.984C326.848 170.358 326.947 172.037 327.148 175.022C327.353 177.037 327.452 178.753 327.446 180.171C327.433 183.453 327.448 186.4 327.491 189.012L327.456 197.964L327.454 198.412C327.434 203.485 326.866 206.02 325.751 206.015ZM357.068 206.027L355.481 204.342C356.039 197.555 356.34 188.491 356.385 177.151C356.405 172.153 356.594 164.618 356.952 154.548C357.361 145.223 357.576 137.726 357.599 132.056C357.601 131.385 357.827 130.863 358.274 130.492C358.733 130.121 359.254 129.937 359.838 129.939C361.698 129.946 363.742 130.253 365.971 130.858C368.2 131.464 369.312 132.252 369.308 133.222C369.303 134.49 368.371 135.12 366.512 135.113C365.346 134.362 363.86 133.983 362.054 133.976L361.097 134.084C360.937 134.158 360.815 134.27 360.729 134.419C360.654 134.568 360.59 134.791 360.535 135.089C360.427 135.686 360.319 136.096 360.212 136.319C360.198 139.676 360.077 143.63 359.846 148.18C359.563 152.581 359.415 156.497 359.401 159.929L359.386 163.846C359.385 164.144 359.809 164.258 360.66 164.187C363.369 164.197 364.721 164.799 364.717 165.993C364.714 166.59 364.51 167.089 364.105 167.49C363.71 167.907 363.274 168.114 362.796 168.112C362.477 168.111 362.026 167.997 361.442 167.771C360.912 167.545 360.461 167.431 360.089 167.43C359.133 167.426 358.647 169.252 358.633 172.908L358.583 185.553C358.576 187.344 358.645 189.993 358.791 193.5C358.936 197.081 359.005 199.768 358.998 201.558C358.986 204.542 358.343 206.032 357.068 206.027ZM381.379 204.556C380.157 204.551 379.441 204.175 379.232 203.428C378.966 203.427 378.753 203.464 378.594 203.538L377.956 203.535C376.787 203.531 376.045 203.155 375.729 202.407C375.731 201.885 375.946 201.438 376.372 201.067L376.773 200.509L379.084 200.518L379.404 200.072L379.567 199.065L379.652 197.723C379.67 193.172 379.607 189.105 379.462 185.524L379.318 181.382L379.191 173.212C379.203 170.303 379.3 165.939 379.482 160.12L379.693 147.139C379.715 141.469 379.599 137.142 379.345 134.156C378.868 133.931 378.072 133.816 376.956 133.811L376.079 133.92C375.76 133.993 375.415 134.029 375.043 134.028C374.033 134.024 373.531 133.387 373.536 132.119C373.537 131.821 373.778 131.523 374.257 131.227C374.736 130.93 375.135 130.783 375.454 130.784C377.473 130.792 379.491 130.949 381.508 131.255C382.73 131.335 383.95 131.675 385.17 132.277C386.124 132.728 386.6 133.364 386.597 134.185C386.596 134.334 386.515 134.632 386.354 135.079L384.521 135.296C384.15 134.847 383.381 134.62 382.212 134.615L381.813 134.95C381.969 135.622 382.041 137.599 382.028 140.882C382.009 145.806 381.965 150.245 381.896 154.198L381.684 167.515C381.671 170.872 381.761 174.939 381.955 179.714C382.093 185.161 382.156 189.265 382.145 192.025L382.14 193.48C382.084 194.002 382.055 194.673 382.052 195.494C382.045 197.21 382.121 198.255 382.279 198.628L382.198 198.852C382.195 199.598 382.778 199.973 383.947 199.978C384.425 199.98 384.823 199.944 385.142 199.871L386.338 199.875C387.878 199.881 388.647 200.407 388.642 201.451C388.64 202.123 388.478 202.659 388.158 203.061C387.838 203.477 387.412 203.684 386.881 203.682C386.402 203.681 385.978 203.604 385.606 203.454C385.182 203.377 384.73 203.338 384.252 203.336C383.933 203.335 383.455 203.52 382.816 203.89C382.176 204.335 381.697 204.557 381.379 204.556ZM402.084 203.966L401.211 203.067L401.148 198.927C401.099 197.733 401.078 196.39 401.084 194.898C401.087 194.151 401.116 193.517 401.171 192.995L401.259 190.981C401.261 190.235 401.159 189.34 400.95 188.294C400.97 183.296 400.741 174.006 400.263 160.426C399.784 147.293 399.527 138.377 399.492 133.676C396.199 133.663 393.994 133.543 392.88 133.315C391.819 132.937 391.29 132.338 391.293 131.518C391.562 130.698 392.068 130.29 392.812 130.293C394.406 130.299 396.716 130.457 399.743 130.768C402.504 131.152 404.814 131.347 406.673 131.355L408.347 131.361L410.021 131.256C410.977 131.26 411.453 131.746 411.449 132.716C411.448 133.164 411.276 133.514 410.935 133.766C410.584 134.033 410.169 134.166 409.69 134.164C408.628 134.16 407.513 134.081 406.345 133.927L402.919 133.69C402.706 133.689 402.6 133.801 402.599 134.024C402.545 134.248 402.515 134.957 402.511 136.15C402.482 143.387 402.758 154.355 403.337 169.055C403.862 184.277 404.111 195.208 404.084 201.848C404.082 202.37 403.857 202.854 403.409 203.3C402.951 203.746 402.509 203.968 402.084 203.966ZM439.931 205.235C439.506 205.233 439.204 205.008 439.025 204.56C438.835 204.111 438.663 203.439 438.507 202.543C438.456 201.946 438.352 201.423 438.194 200.975L438.275 200.64C437.864 197.132 436.978 192.838 435.617 187.76L434.205 181.935C434.1 181.785 433.603 179.881 432.714 176.221L432.087 173.533C427.387 152.774 424.43 141.534 423.215 139.813C422.782 141.826 422.559 144.436 422.547 147.644C422.54 149.36 422.561 150.852 422.609 152.121L422.671 156.486L422.581 159.171C422.525 159.991 422.495 160.887 422.491 161.857C422.484 163.498 422.532 164.916 422.633 166.11C422.73 168.497 422.779 169.691 422.779 169.691L422.539 169.69C422.49 182.15 422.649 189.014 423.016 190.284L422.976 200.356C423.187 200.953 423.29 201.737 423.286 202.707C423.283 203.304 423.138 203.825 422.849 204.272C422.55 204.718 422.188 204.941 421.763 204.939C420.647 204.935 420.098 202.918 420.113 198.889L420.287 195.309C420.398 194.19 420.456 192.96 420.461 191.617C420.475 188.036 420.416 182.664 420.285 175.501C420.154 168.338 420.096 162.966 420.11 159.385C420.118 157.222 420.211 153.902 420.388 149.426C420.565 145.025 420.658 141.743 420.666 139.579L420.672 138.124C420.686 134.469 421.174 132.083 422.134 130.968L422.372 131.305L423.17 131.084C423.382 131.159 423.62 131.384 423.884 131.758C424.096 132.057 424.201 132.394 424.199 132.767L424.356 133.439C424.355 133.588 424.371 133.715 424.402 133.819C424.423 133.939 424.433 133.999 424.433 133.999C425.262 139.299 427.146 146.73 430.083 156.291C433.071 166.375 434.931 173.059 435.662 176.345C436.183 178.958 436.599 181.273 436.909 183.288C437.894 189.634 439.07 194.525 440.437 197.962L440.598 197.627C441.885 181.07 442.576 160.742 442.671 136.644L442.597 135.301C442.545 134.928 442.521 134.443 442.523 133.846C442.529 132.279 442.904 131.497 443.648 131.5C444.126 131.502 444.539 131.84 444.887 132.512C445.225 133.185 445.392 133.932 445.388 134.753L445.359 142.251L444.957 143.144C444.929 150.232 444.591 161.869 443.943 178.056C443.294 194.243 442.702 203.045 442.165 204.46L440.809 204.902L440.808 205.014L440.729 204.902L439.931 205.235ZM457.777 206.312C456.82 206.308 456.292 205.523 456.192 203.956L456.198 202.501C456.252 202.128 456.281 201.681 456.283 201.158L455.966 200.709C456.397 199.144 456.615 197.616 456.621 196.124C456.628 194.408 456.558 191.945 456.411 188.737L456.281 181.35C456.296 177.62 456.398 172.025 456.586 164.565C456.825 157.926 456.954 152.294 456.972 147.668L456.839 140.953C456.741 138.938 456.696 136.7 456.706 134.238C456.71 133.119 456.9 132.314 457.273 131.823C457.647 131.347 458.232 131.11 459.029 131.113C459.561 131.115 459.985 131.341 460.302 131.79C460.408 131.865 461.177 132.017 462.611 132.247C463.938 132.476 465.079 132.816 466.033 133.267C467.041 133.719 467.543 134.28 467.541 134.952C467.538 135.698 467.03 136.442 466.018 137.184C462.995 135.755 460.847 135.037 459.572 135.032L459.171 135.702C459.221 136.374 459.241 137.978 459.231 140.515C459.219 143.723 459.154 146.595 459.038 149.131C458.975 151.742 458.936 154.651 458.924 157.86C458.916 159.948 459.283 160.994 460.027 160.997L461.303 160.89C461.728 160.818 462.18 160.782 462.658 160.784C464.729 160.792 465.763 161.468 465.757 162.811C465.754 163.631 465.619 164.317 465.351 164.868C465.083 165.434 464.684 165.716 464.152 165.714C463.355 165.711 462.746 165.41 462.323 164.811L459.775 164.242L459.377 164.24L458.976 164.798L458.975 165.134C459.076 166.403 459.118 169.35 459.099 173.975C459.088 176.885 459.051 179.533 458.988 181.92L458.877 189.866C458.866 192.775 458.934 195.76 459.081 198.819C459.127 200.535 459.389 201.67 459.865 202.224C460.34 202.793 461.216 203.08 462.491 203.085L463.926 202.979C464.404 202.906 464.935 202.871 465.52 202.873C467.06 202.88 467.829 203.367 467.825 204.337C467.82 205.68 466.648 206.347 464.311 206.338L457.777 206.312ZM477.539 206.278C476.955 206.127 476.399 205.811 475.869 205.332C475.34 204.837 475.05 204.254 475 203.582L475.402 202.689C475.614 202.689 476.092 202.803 476.835 203.03C477.418 203.331 477.896 203.482 478.267 203.483C479.436 203.488 480.475 202.835 481.383 201.526C482.291 200.231 482.989 198.541 483.475 196.453C484.234 192.577 484.62 188.923 484.634 185.491C484.654 180.343 483.56 174.818 481.352 168.915C479.985 165.478 478.933 162.751 478.197 160.733C477.461 158.716 476.806 156.401 476.232 153.787C475.554 150.726 475.22 147.777 475.231 144.942C475.242 142.256 475.732 139.088 476.703 135.436C477.188 133.722 477.868 132.322 478.744 131.236C479.63 130.165 480.577 129.632 481.587 129.636C482.277 129.638 482.951 129.977 483.607 130.651C484.274 131.325 484.606 132.035 484.603 132.781C484.6 133.378 484.254 133.675 483.563 133.672C483.351 133.671 483.085 133.558 482.768 133.333C482.45 133.108 482.158 132.995 481.892 132.994C481.095 132.991 480.377 133.436 479.735 134.329C479.094 135.221 478.612 136.376 478.287 137.792C477.639 140.55 477.31 143.085 477.301 145.398C477.296 146.816 477.423 148.271 477.682 149.764C477.734 150.212 477.785 150.585 477.837 150.884C477.889 151.182 477.915 151.406 477.914 151.556L478.384 153.796L478.774 155.812L479.404 157.828C479.561 158.351 479.729 158.814 479.908 159.218C480.098 159.637 480.272 160.033 480.43 160.406L481.376 162.76C481.587 163.209 482.035 164.27 482.719 165.944C483.403 167.633 484.033 169.411 484.61 171.278C485.135 172.847 485.528 174.318 485.788 175.692C486.048 177.081 486.281 178.745 486.486 180.686C486.638 182.552 486.709 184.604 486.7 186.842C486.686 190.423 486.328 193.779 485.625 196.91C484.654 200.636 483.262 203.242 481.45 204.727C480.437 205.618 479.267 206.061 477.939 206.056L477.539 206.278ZM484.122 133.339L484.202 133.339C484.202 133.264 484.176 133.227 484.123 133.227L484.122 133.339ZM495.533 206.349C494.949 206.198 494.392 205.882 493.863 205.402C493.333 204.908 493.044 204.325 492.993 203.653L493.395 202.76C493.608 202.76 494.085 202.874 494.828 203.101C495.411 203.402 495.889 203.553 496.261 203.554C497.429 203.559 498.468 202.906 499.376 201.597C500.284 200.302 500.982 198.611 501.468 196.524C502.227 192.648 502.613 188.994 502.627 185.562C502.647 180.414 501.553 174.889 499.345 168.986C497.978 165.549 496.926 162.822 496.19 160.804C495.454 158.787 494.8 156.472 494.225 153.858C493.547 150.797 493.213 147.848 493.224 145.013C493.235 142.327 493.726 139.159 494.696 135.507C495.181 133.793 495.867 132.393 496.753 131.307C497.628 130.236 498.571 129.703 499.58 129.707C500.271 129.709 500.949 130.048 501.616 130.722C502.272 131.396 502.599 132.106 502.596 132.852C502.593 133.449 502.247 133.746 501.556 133.743C501.344 133.742 501.079 133.629 500.761 133.404C500.443 133.179 500.151 133.066 499.886 133.065C499.089 133.062 498.37 133.507 497.729 134.4C497.088 135.292 496.605 136.447 496.281 137.863C495.632 140.621 495.304 143.156 495.294 145.469C495.289 146.887 495.416 148.342 495.676 149.835C495.727 150.283 495.779 150.656 495.831 150.955C495.883 151.253 495.908 151.477 495.908 151.626L496.377 153.867L496.767 155.882L497.397 157.899C497.554 158.422 497.728 158.885 497.917 159.289C498.096 159.708 498.265 160.104 498.423 160.477L499.37 162.831C499.58 163.28 500.028 164.341 500.712 166.015C501.396 167.704 502.026 169.482 502.603 171.349C503.128 172.918 503.521 174.389 503.781 175.763C504.041 177.152 504.274 178.816 504.479 180.757C504.631 182.623 504.702 184.675 504.694 186.913C504.679 190.494 504.321 193.85 503.618 196.981C502.647 200.707 501.255 203.313 499.443 204.798C498.43 205.689 497.26 206.132 495.932 206.127L495.533 206.349ZM502.115 133.41L502.195 133.41C502.195 133.335 502.169 133.298 502.116 133.298L502.115 133.41ZM514.183 205.527C513.705 205.525 513.297 205.24 512.959 204.672C512.61 204.119 512.438 203.506 512.44 202.835C512.443 202.089 512.658 201.396 513.086 200.756C513.513 200.131 513.993 199.819 514.524 199.821C514.949 199.823 515.373 200.138 515.795 200.766C516.218 201.41 516.428 202.067 516.425 202.738C516.418 204.604 515.67 205.533 514.183 205.527Z" fill="#AA3131"/>
</g>
</g>
</g>
</g>
</g>
<defs>
<clipPath id="clip0_6_4">
<rect width="555.859" height="105.996" fill="white" transform="translate(0.41803) rotate(0.225965)"/>
</clipPath>
<clipPath id="clip1_6_4">
<rect width="555.859" height="93.7969" fill="white" transform="translate(0.393982 6.09943) rotate(0.225965)"/>
</clipPath>
<clipPath id="clip2_6_4">
<rect width="555.859" height="93.7969" fill="white" transform="translate(0.393982 6.09943) rotate(0.225965)"/>
</clipPath>
<clipPath id="clip3_6_4">
<rect width="555.859" height="93.7969" fill="white" transform="translate(0.393982 6.09943) rotate(0.225965)"/>
</clipPath>
<clipPath id="clip4_6_4">
<rect width="555.859" height="93.7969" fill="white" transform="translate(0.393982 6.09943) rotate(0.225965)"/>
</clipPath>
<clipPath id="clip5_6_4">
<rect width="555.859" height="93.7969" fill="white" transform="translate(0.393982 6.09943) rotate(0.225965)"/>
</clipPath>
<clipPath id="clip6_6_4">
<rect width="476.45" height="78.3365" fill="white" transform="translate(40.309 127) rotate(0.225965)"/>
</clipPath>
<clipPath id="clip7_6_4">
<rect width="476.45" height="78.3365" fill="white" transform="translate(40.309 127) rotate(0.225965)"/>
</clipPath>
<clipPath id="clip8_6_4">
<rect width="476.45" height="78.3365" fill="white" transform="translate(40.309 127) rotate(0.225965)"/>
</clipPath>
<clipPath id="clip9_6_4">
<rect width="476.45" height="78.3365" fill="white" transform="translate(40.309 127) rotate(0.225965)"/>
</clipPath>
<clipPath id="clip10_6_4">
<rect width="476.45" height="78.3365" fill="white" transform="translate(40.309 127) rotate(0.225965)"/>
</clipPath>
</defs>
</svg>
